<svg xmlns="http://www.w3.org/2000/svg" version="1.1" xmlns:xlink="http://www.w3.org/1999/xlink" width="1500" height="60" viewBox="0 0 1500 60"><svg xml:space="preserve" width="1500" height="60" data-version="2" data-id="lg_8wmf4hkmVmCzh9zgEB" viewBox="0 0 569 60" x="0" y="0"><rect width="100%" height="100%" fill="transparent"></rect><path fill="#263aff" d="m75.995.47-5.21 12.08q-6.88 16.04-10.83 25.68t-7.26 19.59h-23.63q-3.23-9.8-7.15-19.39-3.91-9.6-10.46-24.61-1.11-2.53-5.77-13.35h21.96q2.37 7.66 7.03 19.67 4.11 10.58 6.64 18.33 1.66-5.46 3.99-11.66t2.8-7.54q4.59-12.09 6.72-18.8Z"></path><rect width="70.31" height="57.35" x="-35.16" y="-28.68" fill="none" rx="0" ry="0" transform="translate(41.34 29.64)"></rect><path fill="#263aff" d="M98.825 43.36q30.02-.15 43.53-.87-.55 3.24-.67 6.68-.12 3.44-.12 8.65h-61.38q.63-15.33.63-28.68T80.185.47h61.38v14.3h-42.74v7.58q3.79.08 11.22.08 12.56 0 25.99-.48v13.59q-13.43-.47-25.99-.47-7.43 0-11.22.08Z"></path><rect width="62.17" height="57.35" x="-31.09" y="-28.68" fill="none" rx="0" ry="0" transform="translate(111.77 29.64)"></rect><path fill="#263aff" d="M167.955 41.86q22.91-.16 37.92-.79-1.03 4.03-1.27 7.74-.23 3.72-.23 9.01h-55.7q.63-15.33.63-28.68t-.63-28.67h19.28Z"></path><rect width="57.2" height="57.35" x="-28.6" y="-28.68" fill="none" rx="0" ry="0" transform="translate(177.78 29.64)"></rect><path fill="#263aff" d="M255.005.39h19.6v31.44q-.16 11.61-7.94 19.2-7.79 7.58-26.19 7.58-18.65 0-25.52-7.23-6.87-7.23-6.71-19V.39h19.59v30.73q0 3.47.51 5.65.51 2.17 3.32 4.07 2.8 1.89 9.05 1.89 6.79 0 9.95-1.93 3.16-1.94 3.75-4.31.59-2.37.59-6.08Z"></path><rect width="66.4" height="58.22" x="-33.2" y="-29.11" fill="none" rx="0" ry="0" transform="translate(241.9 30)"></rect><path fill="#263aff" d="M344.355 19.58q0 6.88-3.35 11.62-3.36 4.74-11.5 6.87.95 1.26 1.34 1.98l12.8 17.77h-21.49q-3.47-6.48-10.98-18.33h-11.61v18.33h-18.64q.63-15.33.63-28.68t-.63-28.67h18.64v.08h16.2q15.95 0 22.27 5.13 6.32 5.14 6.32 13.9m-44.79-3.87v9.01h10.67q6.71 0 10.15-.44 3.43-.43 4.78-1.38 1.34-.95 1.34-2.76 0-1.74-1.26-2.69-1.27-.95-4.74-1.34-3.48-.4-10.27-.4Z"></path><rect width="63.43" height="57.35" x="-31.71" y="-28.68" fill="none" rx="0" ry="0" transform="translate(313.14 29.64)"></rect><path fill="#263aff" d="M395.785 57.82q-1.5-4.5-4.03-11.3h-25.2l-3.95 11.3h-19.83L364.895.47h29.08l22.27 57.35Zm-8.53-23.62q-3-8.3-6.16-16.59l-1.9-5.14q-2.76 7.19-8.13 21.73Z"></path><rect width="73.47" height="57.35" x="-36.73" y="-28.68" fill="none" rx="0" ry="0" transform="translate(380.01 29.64)"></rect><path fill="#263aff" d="M428.015 58.61q-3.47 0-5.92-2.49-2.45-2.49-2.45-5.96 0-3.48 2.45-5.93 2.45-2.45 5.92-2.45 3.4 0 5.89 2.49 2.49 2.49 2.49 5.89 0 3.47-2.49 5.96-2.49 2.49-5.89 2.49"></path><rect width="16.75" height="16.83" x="-8.38" y="-8.41" fill="none" rx="0" ry="0" transform="translate(428.52 50.7)"></rect><path fill="#263aff" d="M491.775 57.82q-1.5-4.5-4.03-11.3h-25.2l-3.95 11.3h-19.83L460.885.47h29.07l22.28 57.35Zm-8.54-23.62q-3-8.3-6.16-16.59l-1.89-5.14q-2.77 7.19-8.14 21.73Z"></path><rect width="73.47" height="57.35" x="-36.73" y="-28.68" fill="none" rx="0" ry="0" transform="translate(476 29.64)"></rect><path fill="#263aff" d="M562.315 16.19q-9.4-.48-13.9-.56v27.02q4.58-.08 13.9-.55v15.72h-45.89V42.1q9.08.47 13.82.55V15.63q-4.74.08-13.82.56V.47h45.89Z"></path><rect width="45.89" height="57.35" x="-22.95" y="-28.68" fill="none" rx="0" ry="0" transform="translate(539.87 29.64)"></rect></svg></svg>